<?xml version="1.0" encoding="UTF-8"?>
<svg xmlns="http://www.w3.org/2000/svg" viewBox="0 0 770 2110" font-family="system-ui, -apple-system, sans-serif">
  <!-- White background -->
  <rect width="100%" height="100%" fill="white"/>
  <style>
    .title { font-size: 18px; font-weight: bold; fill: #1f2937; }
    .subtitle { font-size: 12px; fill: #6b7280; }
    .op-label { font-size: 11px; fill: #374151; }
    .orm-label { font-size: 9px; fill: #6b7280; }
    .value-label { font-size: 8px; fill: #374151; }
    .value-overflow { font-size: 8px; fill: #dc2626; font-weight: bold; }
    .axis-label { font-size: 10px; fill: #9ca3af; }
    .grid-line { stroke: #e5e7eb; stroke-width: 1; }
    .baseline { stroke: #22c55e; stroke-width: 2; stroke-dasharray: 6,3; }
    .overflow-line { stroke: #dc2626; stroke-width: 1; }
    .legend-text { font-size: 10px; fill: #374151; }
    .na-text { font-size: 8px; fill: #9ca3af; font-style: italic; }
  </style>
  
  <!-- Title -->
  <text x="385" y="25" text-anchor="middle" class="title">ORM Benchmark Comparison</text>
  <text x="385" y="45" text-anchor="middle" class="subtitle">Relative speed (litedbmodel = 1.0, lower is faster)</text>
  
  <!-- Chart area -->
  <g transform="translate(220, 60)">
    <!-- Grid lines -->
    <line x1="40" y1="0" x2="40" y2="1970" class="grid-line" />
    <text x="40" y="1985" text-anchor="middle" class="axis-label">0.5</text>
    <line x1="80" y1="0" x2="80" y2="1970" class="grid-line" />
    <text x="80" y="1985" text-anchor="middle" class="axis-label">1.0</text>
    <line x1="120" y1="0" x2="120" y2="1970" class="grid-line" />
    <text x="120" y="1985" text-anchor="middle" class="axis-label">1.5</text>
    <line x1="160" y1="0" x2="160" y2="1970" class="grid-line" />
    <text x="160" y="1985" text-anchor="middle" class="axis-label">2.0</text>
    <line x1="200" y1="0" x2="200" y2="1970" class="grid-line" />
    <text x="200" y="1985" text-anchor="middle" class="axis-label">2.5</text>
    <line x1="240" y1="0" x2="240" y2="1970" class="grid-line" />
    <text x="240" y="1985" text-anchor="middle" class="axis-label">3.0</text>
    <line x1="280" y1="0" x2="280" y2="1970" class="grid-line" />
    <text x="280" y="1985" text-anchor="middle" class="axis-label">3.5</text>
    <line x1="320" y1="0" x2="320" y2="1970" class="grid-line" />
    <text x="320" y="1985" text-anchor="middle" class="axis-label">4.0</text>
    <line x1="360" y1="0" x2="360" y2="1970" class="grid-line" />
    <text x="360" y="1985" text-anchor="middle" class="axis-label">4.5</text>
    <line x1="400" y1="0" x2="400" y2="1970" class="grid-line" />
    <text x="400" y="1985" text-anchor="middle" class="axis-label">5.0</text>
    <text x="405" y="1985" text-anchor="start" class="axis-label" fill="#dc2626">5+</text>
    <line x1="80" y1="-5" x2="80" y2="1975" class="baseline" />
    <text x="-10" y="40" text-anchor="end" dominant-baseline="middle" class="op-label">Find all (limit 100)</text>
    <rect x="0" y="0" width="80" height="12" fill="#3b82f6" rx="2" />
    <text x="85" y="7" dominant-baseline="middle" class="value-label">1.00x (0.60ms)</text>
    <rect x="0" y="16" width="104" height="12" fill="#22c55e" rx="2" />
    <text x="109" y="23" dominant-baseline="middle" class="value-label">1.30x (0.78ms)</text>
    <rect x="0" y="32" width="93.33333333333333" height="12" fill="#f59e0b" rx="2" />
    <text x="98.33333333333333" y="39" dominant-baseline="middle" class="value-label">1.17x (0.70ms)</text>
    <rect x="0" y="48" width="133.33333333333334" height="12" fill="#ef4444" rx="2" />
    <text x="138.33333333333334" y="55" dominant-baseline="middle" class="value-label">1.67x (1.00ms)</text>
    <rect x="0" y="64" width="201.33333333333331" height="12" fill="#8b5cf6" rx="2" />
    <text x="206.33333333333331" y="71" dominant-baseline="middle" class="value-label">2.52x (1.51ms)</text>
    <text x="-10" y="145" text-anchor="end" dominant-baseline="middle" class="op-label">Filter, paginate &amp; sort</text>
    <rect x="0" y="105" width="80" height="12" fill="#3b82f6" rx="2" />
    <text x="85" y="112" dominant-baseline="middle" class="value-label">1.00x (0.67ms)</text>
    <rect x="0" y="121" width="88.35820895522387" height="12" fill="#22c55e" rx="2" />
    <text x="93.35820895522387" y="128" dominant-baseline="middle" class="value-label">1.10x (0.74ms)</text>
    <rect x="0" y="137" width="82.38805970149252" height="12" fill="#f59e0b" rx="2" />
    <text x="87.38805970149252" y="144" dominant-baseline="middle" class="value-label">1.03x (0.69ms)</text>
    <rect x="0" y="153" width="91.94029850746269" height="12" fill="#ef4444" rx="2" />
    <text x="96.94029850746269" y="160" dominant-baseline="middle" class="value-label">1.15x (0.77ms)</text>
    <rect x="0" y="169" width="148.0597014925373" height="12" fill="#8b5cf6" rx="2" />
    <text x="153.0597014925373" y="176" dominant-baseline="middle" class="value-label">1.85x (1.24ms)</text>
    <text x="-10" y="250" text-anchor="end" dominant-baseline="middle" class="op-label">Nested find all (include posts)</text>
    <rect x="0" y="210" width="80" height="12" fill="#3b82f6" rx="2" />
    <text x="85" y="217" dominant-baseline="middle" class="value-label">1.00x (3.24ms)</text>
    <rect x="0" y="226" width="130.37037037037035" height="12" fill="#22c55e" rx="2" />
    <text x="135.37037037037035" y="233" dominant-baseline="middle" class="value-label">1.63x (5.28ms)</text>
    <rect x="0" y="242" width="129.1358024691358" height="12" fill="#f59e0b" rx="2" />
    <text x="134.1358024691358" y="249" dominant-baseline="middle" class="value-label">1.61x (5.23ms)</text>
    <rect x="0" y="258" width="238.51851851851853" height="12" fill="#ef4444" rx="2" />
    <text x="243.51851851851853" y="265" dominant-baseline="middle" class="value-label">2.98x (9.66ms)</text>
    <rect x="0" y="274" width="324.1975308641975" height="12" fill="#8b5cf6" rx="2" />
    <text x="329.1975308641975" y="281" dominant-baseline="middle" class="value-label">4.05x (13.13ms)</text>
    <text x="-10" y="355" text-anchor="end" dominant-baseline="middle" class="op-label">Find first</text>
    <rect x="0" y="315" width="80" height="12" fill="#3b82f6" rx="2" />
    <text x="85" y="322" dominant-baseline="middle" class="value-label">1.00x (0.42ms)</text>
    <rect x="0" y="331" width="78.0952380952381" height="12" fill="#22c55e" rx="2" />
    <text x="83.0952380952381" y="338" dominant-baseline="middle" class="value-label">0.98x (0.41ms)</text>
    <rect x="0" y="347" width="83.80952380952381" height="12" fill="#f59e0b" rx="2" />
    <text x="88.80952380952381" y="354" dominant-baseline="middle" class="value-label">1.05x (0.44ms)</text>
    <rect x="0" y="363" width="89.52380952380953" height="12" fill="#ef4444" rx="2" />
    <text x="94.52380952380953" y="370" dominant-baseline="middle" class="value-label">1.12x (0.47ms)</text>
    <rect x="0" y="379" width="142.85714285714286" height="12" fill="#8b5cf6" rx="2" />
    <text x="147.85714285714286" y="386" dominant-baseline="middle" class="value-label">1.79x (0.75ms)</text>
    <text x="-10" y="460" text-anchor="end" dominant-baseline="middle" class="op-label">Nested find first (include posts)</text>
    <rect x="0" y="420" width="80" height="12" fill="#3b82f6" rx="2" />
    <text x="85" y="427" dominant-baseline="middle" class="value-label">1.00x (0.69ms)</text>
    <rect x="0" y="436" width="81.15942028985508" height="12" fill="#22c55e" rx="2" />
    <text x="86.15942028985508" y="443" dominant-baseline="middle" class="value-label">1.01x (0.70ms)</text>
    <rect x="0" y="452" width="84.6376811594203" height="12" fill="#f59e0b" rx="2" />
    <text x="89.6376811594203" y="459" dominant-baseline="middle" class="value-label">1.06x (0.73ms)</text>
    <rect x="0" y="468" width="68.40579710144927" height="12" fill="#ef4444" rx="2" />
    <text x="73.40579710144927" y="475" dominant-baseline="middle" class="value-label">0.86x (0.59ms)</text>
    <rect x="0" y="484" width="141.44927536231884" height="12" fill="#8b5cf6" rx="2" />
    <text x="146.44927536231884" y="491" dominant-baseline="middle" class="value-label">1.77x (1.22ms)</text>
    <text x="-10" y="565" text-anchor="end" dominant-baseline="middle" class="op-label">Find unique (by email)</text>
    <rect x="0" y="525" width="80" height="12" fill="#3b82f6" rx="2" />
    <text x="85" y="532" dominant-baseline="middle" class="value-label">1.00x (0.33ms)</text>
    <rect x="0" y="541" width="80" height="12" fill="#22c55e" rx="2" />
    <text x="85" y="548" dominant-baseline="middle" class="value-label">1.00x (0.33ms)</text>
    <rect x="0" y="557" width="87.27272727272727" height="12" fill="#f59e0b" rx="2" />
    <text x="92.27272727272727" y="564" dominant-baseline="middle" class="value-label">1.09x (0.36ms)</text>
    <rect x="0" y="573" width="96.96969696969697" height="12" fill="#ef4444" rx="2" />
    <text x="101.96969696969697" y="580" dominant-baseline="middle" class="value-label">1.21x (0.40ms)</text>
    <rect x="0" y="589" width="152.72727272727272" height="12" fill="#8b5cf6" rx="2" />
    <text x="157.72727272727272" y="596" dominant-baseline="middle" class="value-label">1.91x (0.63ms)</text>
    <text x="-10" y="670" text-anchor="end" dominant-baseline="middle" class="op-label">Nested find unique (include posts)</text>
    <rect x="0" y="630" width="80" height="12" fill="#3b82f6" rx="2" />
    <text x="85" y="637" dominant-baseline="middle" class="value-label">1.00x (0.66ms)</text>
    <rect x="0" y="646" width="83.63636363636363" height="12" fill="#22c55e" rx="2" />
    <text x="88.63636363636363" y="653" dominant-baseline="middle" class="value-label">1.05x (0.69ms)</text>
    <rect x="0" y="662" width="106.66666666666667" height="12" fill="#f59e0b" rx="2" />
    <text x="111.66666666666667" y="669" dominant-baseline="middle" class="value-label">1.33x (0.88ms)</text>
    <rect x="0" y="678" width="162.42424242424244" height="12" fill="#ef4444" rx="2" />
    <text x="167.42424242424244" y="685" dominant-baseline="middle" class="value-label">2.03x (1.34ms)</text>
    <rect x="0" y="694" width="144.24242424242422" height="12" fill="#8b5cf6" rx="2" />
    <text x="149.24242424242422" y="701" dominant-baseline="middle" class="value-label">1.80x (1.19ms)</text>
    <text x="-10" y="775" text-anchor="end" dominant-baseline="middle" class="op-label">Create</text>
    <rect x="0" y="735" width="80" height="12" fill="#3b82f6" rx="2" />
    <text x="85" y="742" dominant-baseline="middle" class="value-label">1.00x (0.85ms)</text>
    <rect x="0" y="751" width="82.82352941176472" height="12" fill="#22c55e" rx="2" />
    <text x="87.82352941176472" y="758" dominant-baseline="middle" class="value-label">1.04x (0.88ms)</text>
    <rect x="0" y="767" width="92.23529411764704" height="12" fill="#f59e0b" rx="2" />
    <text x="97.23529411764704" y="774" dominant-baseline="middle" class="value-label">1.15x (0.98ms)</text>
    <rect x="0" y="783" width="90.3529411764706" height="12" fill="#ef4444" rx="2" />
    <text x="95.3529411764706" y="790" dominant-baseline="middle" class="value-label">1.13x (0.96ms)</text>
    <rect x="0" y="799" width="128" height="12" fill="#8b5cf6" rx="2" />
    <text x="133" y="806" dominant-baseline="middle" class="value-label">1.60x (1.36ms)</text>
    <text x="-10" y="880" text-anchor="end" dominant-baseline="middle" class="op-label">Nested create (with post)</text>
    <rect x="0" y="840" width="80" height="12" fill="#3b82f6" rx="2" />
    <text x="85" y="847" dominant-baseline="middle" class="value-label">1.00x (0.98ms)</text>
    <rect x="0" y="856" width="115.9183673469388" height="12" fill="#22c55e" rx="2" />
    <text x="120.9183673469388" y="863" dominant-baseline="middle" class="value-label">1.45x (1.42ms)</text>
    <rect x="0" y="872" width="109.38775510204084" height="12" fill="#f59e0b" rx="2" />
    <text x="114.38775510204084" y="879" dominant-baseline="middle" class="value-label">1.37x (1.34ms)</text>
    <rect x="0" y="888" width="123.26530612244899" height="12" fill="#ef4444" rx="2" />
    <text x="128.26530612244898" y="895" dominant-baseline="middle" class="value-label">1.54x (1.51ms)</text>
    <rect x="0" y="904" width="168.97959183673467" height="12" fill="#8b5cf6" rx="2" />
    <text x="173.97959183673467" y="911" dominant-baseline="middle" class="value-label">2.11x (2.07ms)</text>
    <text x="-10" y="985" text-anchor="end" dominant-baseline="middle" class="op-label">Update</text>
    <rect x="0" y="945" width="80" height="12" fill="#3b82f6" rx="2" />
    <text x="85" y="952" dominant-baseline="middle" class="value-label">1.00x (0.83ms)</text>
    <rect x="0" y="961" width="77.10843373493977" height="12" fill="#22c55e" rx="2" />
    <text x="82.10843373493977" y="968" dominant-baseline="middle" class="value-label">0.96x (0.80ms)</text>
    <rect x="0" y="977" width="74.21686746987952" height="12" fill="#f59e0b" rx="2" />
    <text x="79.21686746987952" y="984" dominant-baseline="middle" class="value-label">0.93x (0.77ms)</text>
    <rect x="0" y="993" width="81.9277108433735" height="12" fill="#ef4444" rx="2" />
    <text x="86.9277108433735" y="1000" dominant-baseline="middle" class="value-label">1.02x (0.85ms)</text>
    <rect x="0" y="1009" width="140.72289156626508" height="12" fill="#8b5cf6" rx="2" />
    <text x="145.72289156626508" y="1016" dominant-baseline="middle" class="value-label">1.76x (1.46ms)</text>
    <text x="-10" y="1090" text-anchor="end" dominant-baseline="middle" class="op-label">Nested update (update user + post)</text>
    <rect x="0" y="1050" width="80" height="12" fill="#3b82f6" rx="2" />
    <text x="85" y="1057" dominant-baseline="middle" class="value-label">1.00x (1.24ms)</text>
    <rect x="0" y="1066" width="83.22580645161291" height="12" fill="#22c55e" rx="2" />
    <text x="88.22580645161291" y="1073" dominant-baseline="middle" class="value-label">1.04x (1.29ms)</text>
    <rect x="0" y="1082" width="82.58064516129032" height="12" fill="#f59e0b" rx="2" />
    <text x="87.58064516129032" y="1089" dominant-baseline="middle" class="value-label">1.03x (1.28ms)</text>
    <rect x="0" y="1098" width="88.38709677419357" height="12" fill="#ef4444" rx="2" />
    <text x="93.38709677419357" y="1105" dominant-baseline="middle" class="value-label">1.10x (1.37ms)</text>
    <rect x="0" y="1114" width="187.0967741935484" height="12" fill="#8b5cf6" rx="2" />
    <text x="192.0967741935484" y="1121" dominant-baseline="middle" class="value-label">2.34x (2.90ms)</text>
    <text x="-10" y="1195" text-anchor="end" dominant-baseline="middle" class="op-label">Upsert</text>
    <rect x="0" y="1155" width="80" height="12" fill="#3b82f6" rx="2" />
    <text x="85" y="1162" dominant-baseline="middle" class="value-label">1.00x (0.82ms)</text>
    <rect x="0" y="1171" width="89.75609756097562" height="12" fill="#22c55e" rx="2" />
    <text x="94.75609756097562" y="1178" dominant-baseline="middle" class="value-label">1.12x (0.92ms)</text>
    <rect x="0" y="1187" width="101.46341463414635" height="12" fill="#f59e0b" rx="2" />
    <text x="106.46341463414635" y="1194" dominant-baseline="middle" class="value-label">1.27x (1.04ms)</text>
    <rect x="0" y="1203" width="115.12195121951218" height="12" fill="#ef4444" rx="2" />
    <text x="120.12195121951218" y="1210" dominant-baseline="middle" class="value-label">1.44x (1.18ms)</text>
    <rect x="0" y="1219" width="246.8292682926829" height="12" fill="#8b5cf6" rx="2" />
    <text x="251.8292682926829" y="1226" dominant-baseline="middle" class="value-label">3.09x (2.53ms)</text>
    <text x="-10" y="1300" text-anchor="end" dominant-baseline="middle" class="op-label">Nested upsert (user + post)</text>
    <rect x="0" y="1260" width="80" height="12" fill="#3b82f6" rx="2" />
    <text x="85" y="1267" dominant-baseline="middle" class="value-label">1.00x (1.37ms)</text>
    <rect x="0" y="1276" width="73.57664233576642" height="12" fill="#22c55e" rx="2" />
    <text x="78.57664233576642" y="1283" dominant-baseline="middle" class="value-label">0.92x (1.26ms)</text>
    <rect x="0" y="1292" width="84.08759124087591" height="12" fill="#f59e0b" rx="2" />
    <text x="89.08759124087591" y="1299" dominant-baseline="middle" class="value-label">1.05x (1.44ms)</text>
    <rect x="0" y="1308" width="84.67153284671532" height="12" fill="#ef4444" rx="2" />
    <text x="89.67153284671532" y="1315" dominant-baseline="middle" class="value-label">1.06x (1.45ms)</text>
    <rect x="0" y="1324" width="169.92700729927006" height="12" fill="#8b5cf6" rx="2" />
    <text x="174.92700729927006" y="1331" dominant-baseline="middle" class="value-label">2.12x (2.91ms)</text>
    <text x="-10" y="1405" text-anchor="end" dominant-baseline="middle" class="op-label">Delete</text>
    <rect x="0" y="1365" width="80" height="12" fill="#3b82f6" rx="2" />
    <text x="85" y="1372" dominant-baseline="middle" class="value-label">1.00x (1.38ms)</text>
    <rect x="0" y="1381" width="71.8840579710145" height="12" fill="#22c55e" rx="2" />
    <text x="76.8840579710145" y="1388" dominant-baseline="middle" class="value-label">0.90x (1.24ms)</text>
    <rect x="0" y="1397" width="79.42028985507248" height="12" fill="#f59e0b" rx="2" />
    <text x="84.42028985507248" y="1404" dominant-baseline="middle" class="value-label">0.99x (1.37ms)</text>
    <rect x="0" y="1413" width="97.3913043478261" height="12" fill="#ef4444" rx="2" />
    <text x="102.3913043478261" y="1420" dominant-baseline="middle" class="value-label">1.22x (1.68ms)</text>
    <rect x="0" y="1429" width="118.84057971014492" height="12" fill="#8b5cf6" rx="2" />
    <text x="123.84057971014492" y="1436" dominant-baseline="middle" class="value-label">1.49x (2.05ms)</text>
    <text x="-10" y="1510" text-anchor="end" dominant-baseline="middle" class="op-label">Create Many (10 records)</text>
    <rect x="0" y="1470" width="80" height="12" fill="#3b82f6" rx="2" />
    <text x="85" y="1477" dominant-baseline="middle" class="value-label">1.00x (0.89ms)</text>
    <rect x="0" y="1486" width="82.69662921348315" height="12" fill="#22c55e" rx="2" />
    <text x="87.69662921348315" y="1493" dominant-baseline="middle" class="value-label">1.03x (0.92ms)</text>
    <rect x="0" y="1502" width="116.85393258426966" height="12" fill="#f59e0b" rx="2" />
    <text x="121.85393258426966" y="1509" dominant-baseline="middle" class="value-label">1.46x (1.30ms)</text>
    <rect x="0" y="1518" width="132.13483146067415" height="12" fill="#ef4444" rx="2" />
    <text x="137.13483146067415" y="1525" dominant-baseline="middle" class="value-label">1.65x (1.47ms)</text>
    <rect x="0" y="1534" width="151.91011235955057" height="12" fill="#8b5cf6" rx="2" />
    <text x="156.91011235955057" y="1541" dominant-baseline="middle" class="value-label">1.90x (1.69ms)</text>
    <text x="-10" y="1615" text-anchor="end" dominant-baseline="middle" class="op-label">Upsert Many (10 records)</text>
    <rect x="0" y="1575" width="80" height="12" fill="#3b82f6" rx="2" />
    <text x="85" y="1582" dominant-baseline="middle" class="value-label">1.00x (1.29ms)</text>
    <rect x="0" y="1591" width="66.97674418604652" height="12" fill="#22c55e" rx="2" />
    <text x="71.97674418604652" y="1598" dominant-baseline="middle" class="value-label">0.84x (1.08ms)</text>
    <rect x="0" y="1607" width="73.79844961240309" height="12" fill="#f59e0b" rx="2" />
    <text x="78.79844961240309" y="1614" dominant-baseline="middle" class="value-label">0.92x (1.19ms)</text>
    <rect x="0" y="1623" width="81.86046511627907" height="12" fill="#ef4444" rx="2" />
    <text x="86.86046511627907" y="1630" dominant-baseline="middle" class="value-label">1.02x (1.32ms)</text>
    <rect x="0" y="1639" width="400" height="12" fill="#8b5cf6" rx="2" />
    <line x1="397" y1="1639" x2="400" y2="1651" class="overflow-line" />
    <line x1="394" y1="1639" x2="397" y2="1651" class="overflow-line" />
    <text x="405" y="1646" dominant-baseline="middle" class="value-overflow">⚠️ 11.76x (15.17ms)</text>
    <text x="-10" y="1720" text-anchor="end" dominant-baseline="middle" class="op-label">Update Many (10 different values)</text>
    <rect x="0" y="1680" width="80" height="12" fill="#3b82f6" rx="2" />
    <text x="85" y="1687" dominant-baseline="middle" class="value-label">1.00x (0.88ms)</text>
    <rect x="0" y="1696" width="312.72727272727275" height="12" fill="#22c55e" rx="2" />
    <text x="317.72727272727275" y="1703" dominant-baseline="middle" class="value-label">3.91x (3.44ms)</text>
    <rect x="0" y="1712" width="327.27272727272725" height="12" fill="#f59e0b" rx="2" />
    <text x="332.27272727272725" y="1719" dominant-baseline="middle" class="value-label">4.09x (3.60ms)</text>
    <rect x="0" y="1728" width="337.27272727272725" height="12" fill="#ef4444" rx="2" />
    <text x="342.27272727272725" y="1735" dominant-baseline="middle" class="value-label">4.22x (3.71ms)</text>
    <rect x="0" y="1744" width="400" height="12" fill="#8b5cf6" rx="2" />
    <line x1="397" y1="1744" x2="400" y2="1756" class="overflow-line" />
    <line x1="394" y1="1744" x2="397" y2="1756" class="overflow-line" />
    <text x="405" y="1751" dominant-baseline="middle" class="value-overflow">⚠️ 8.44x (7.43ms)</text>
    <text x="-10" y="1825" text-anchor="end" dominant-baseline="middle" class="op-label">Nested relations (100→1000→10000)</text>
    <rect x="0" y="1785" width="80" height="12" fill="#3b82f6" rx="2" />
    <text x="85" y="1792" dominant-baseline="middle" class="value-label">1.00x (16.12ms)</text>
    <rect x="0" y="1801" width="131.61290322580643" height="12" fill="#22c55e" rx="2" />
    <text x="136.61290322580643" y="1808" dominant-baseline="middle" class="value-label">1.65x (26.52ms)</text>
    <rect x="0" y="1817" width="122.67990074441686" height="12" fill="#f59e0b" rx="2" />
    <text x="127.67990074441686" y="1824" dominant-baseline="middle" class="value-label">1.53x (24.72ms)</text>
    <rect x="0" y="1833" width="400" height="12" fill="#ef4444" rx="2" />
    <line x1="397" y1="1833" x2="400" y2="1845" class="overflow-line" />
    <line x1="394" y1="1833" x2="397" y2="1845" class="overflow-line" />
    <text x="405" y="1840" dominant-baseline="middle" class="value-overflow">⚠️ 5.69x (91.66ms)</text>
    <rect x="0" y="1849" width="400" height="12" fill="#8b5cf6" rx="2" />
    <line x1="397" y1="1849" x2="400" y2="1861" class="overflow-line" />
    <line x1="394" y1="1849" x2="397" y2="1861" class="overflow-line" />
    <text x="405" y="1856" dominant-baseline="middle" class="value-overflow">⚠️ 5.33x (85.84ms)</text>
    <text x="-10" y="1930" text-anchor="end" dominant-baseline="middle" class="op-label">Nested relations (composite key, 5 tenants)</text>
    <rect x="0" y="1890" width="80" height="12" fill="#3b82f6" rx="2" />
    <text x="85" y="1897" dominant-baseline="middle" class="value-label">1.00x (22.30ms)</text>
    <text x="5" y="1913" dominant-baseline="middle" class="na-text">N/A</text>
    <rect x="0" y="1922" width="59.44394618834081" height="12" fill="#f59e0b" rx="2" />
    <text x="64.44394618834082" y="1929" dominant-baseline="middle" class="value-label">0.74x (16.57ms)</text>
    <rect x="0" y="1938" width="146.26008968609867" height="12" fill="#ef4444" rx="2" />
    <text x="151.26008968609867" y="1945" dominant-baseline="middle" class="value-label">1.83x (40.77ms)</text>
    <rect x="0" y="1954" width="400" height="12" fill="#8b5cf6" rx="2" />
    <line x1="397" y1="1954" x2="400" y2="1966" class="overflow-line" />
    <line x1="394" y1="1954" x2="397" y2="1966" class="overflow-line" />
    <text x="405" y="1961" dominant-baseline="middle" class="value-overflow">⚠️ 10.08x (224.74ms)</text>
  </g>
  
  <!-- Legend -->
  <g transform="translate(640, 60)">
    <rect x="0" y="0" width="14" height="14" fill="#3b82f6" rx="2" />
    <text x="20" y="11" class="legend-text">litedbmodel</text>
    <rect x="0" y="20" width="14" height="14" fill="#22c55e" rx="2" />
    <text x="20" y="31" class="legend-text">Kysely</text>
    <rect x="0" y="40" width="14" height="14" fill="#f59e0b" rx="2" />
    <text x="20" y="51" class="legend-text">Drizzle</text>
    <rect x="0" y="60" width="14" height="14" fill="#ef4444" rx="2" />
    <text x="20" y="71" class="legend-text">TypeORM</text>
    <rect x="0" y="80" width="14" height="14" fill="#8b5cf6" rx="2" />
    <text x="20" y="91" class="legend-text">Prisma</text>
    <line x1="0" y1="110" x2="14" y2="110" class="overflow-line" />
    <text x="20" y="114" class="legend-text" fill="#dc2626">&gt;5x (truncated)</text>
  </g>
</svg>