<?xml version="1.0" encoding="UTF-8"?>
<svg xmlns="http://www.w3.org/2000/svg" viewBox="0 0 770 2110" font-family="system-ui, -apple-system, sans-serif">
  <!-- White background -->
  <rect width="100%" height="100%" fill="white"/>
  <style>
    .title { font-size: 18px; font-weight: bold; fill: #1f2937; }
    .subtitle { font-size: 12px; fill: #6b7280; }
    .op-label { font-size: 11px; fill: #374151; }
    .orm-label { font-size: 9px; fill: #6b7280; }
    .value-label { font-size: 8px; fill: #374151; }
    .value-overflow { font-size: 8px; fill: #dc2626; font-weight: bold; }
    .axis-label { font-size: 10px; fill: #9ca3af; }
    .grid-line { stroke: #e5e7eb; stroke-width: 1; }
    .baseline { stroke: #22c55e; stroke-width: 2; stroke-dasharray: 6,3; }
    .overflow-line { stroke: #dc2626; stroke-width: 1; }
    .legend-text { font-size: 10px; fill: #374151; }
    .na-text { font-size: 8px; fill: #9ca3af; font-style: italic; }
  </style>
  
  <!-- Title -->
  <text x="385" y="25" text-anchor="middle" class="title">ORM Benchmark Comparison</text>
  <text x="385" y="45" text-anchor="middle" class="subtitle">Relative speed (litedbmodel = 1.0, lower is faster)</text>
  
  <!-- Chart area -->
  <g transform="translate(220, 60)">
    <!-- Grid lines -->
    <line x1="40" y1="0" x2="40" y2="1970" class="grid-line" />
    <text x="40" y="1985" text-anchor="middle" class="axis-label">0.5</text>
    <line x1="80" y1="0" x2="80" y2="1970" class="grid-line" />
    <text x="80" y="1985" text-anchor="middle" class="axis-label">1.0</text>
    <line x1="120" y1="0" x2="120" y2="1970" class="grid-line" />
    <text x="120" y="1985" text-anchor="middle" class="axis-label">1.5</text>
    <line x1="160" y1="0" x2="160" y2="1970" class="grid-line" />
    <text x="160" y="1985" text-anchor="middle" class="axis-label">2.0</text>
    <line x1="200" y1="0" x2="200" y2="1970" class="grid-line" />
    <text x="200" y="1985" text-anchor="middle" class="axis-label">2.5</text>
    <line x1="240" y1="0" x2="240" y2="1970" class="grid-line" />
    <text x="240" y="1985" text-anchor="middle" class="axis-label">3.0</text>
    <line x1="280" y1="0" x2="280" y2="1970" class="grid-line" />
    <text x="280" y="1985" text-anchor="middle" class="axis-label">3.5</text>
    <line x1="320" y1="0" x2="320" y2="1970" class="grid-line" />
    <text x="320" y="1985" text-anchor="middle" class="axis-label">4.0</text>
    <line x1="360" y1="0" x2="360" y2="1970" class="grid-line" />
    <text x="360" y="1985" text-anchor="middle" class="axis-label">4.5</text>
    <line x1="400" y1="0" x2="400" y2="1970" class="grid-line" />
    <text x="400" y="1985" text-anchor="middle" class="axis-label">5.0</text>
    <text x="405" y="1985" text-anchor="start" class="axis-label" fill="#dc2626">5+</text>
    <line x1="80" y1="-5" x2="80" y2="1975" class="baseline" />
    <text x="-10" y="40" text-anchor="end" dominant-baseline="middle" class="op-label">Find all (limit 100)</text>
    <rect x="0" y="0" width="80" height="12" fill="#3b82f6" rx="2" />
    <text x="85" y="7" dominant-baseline="middle" class="value-label">1.00x (0.48ms)</text>
    <rect x="0" y="16" width="91.66666666666667" height="12" fill="#22c55e" rx="2" />
    <text x="96.66666666666667" y="23" dominant-baseline="middle" class="value-label">1.15x (0.55ms)</text>
    <rect x="0" y="32" width="96.66666666666666" height="12" fill="#f59e0b" rx="2" />
    <text x="101.66666666666666" y="39" dominant-baseline="middle" class="value-label">1.21x (0.58ms)</text>
    <rect x="0" y="48" width="106.66666666666669" height="12" fill="#ef4444" rx="2" />
    <text x="111.66666666666669" y="55" dominant-baseline="middle" class="value-label">1.33x (0.64ms)</text>
    <rect x="0" y="64" width="161.66666666666666" height="12" fill="#8b5cf6" rx="2" />
    <text x="166.66666666666666" y="71" dominant-baseline="middle" class="value-label">2.02x (0.97ms)</text>
    <text x="-10" y="145" text-anchor="end" dominant-baseline="middle" class="op-label">Filter, paginate &amp; sort</text>
    <rect x="0" y="105" width="80" height="12" fill="#3b82f6" rx="2" />
    <text x="85" y="112" dominant-baseline="middle" class="value-label">1.00x (0.52ms)</text>
    <rect x="0" y="121" width="87.69230769230768" height="12" fill="#22c55e" rx="2" />
    <text x="92.69230769230768" y="128" dominant-baseline="middle" class="value-label">1.10x (0.57ms)</text>
    <rect x="0" y="137" width="92.3076923076923" height="12" fill="#f59e0b" rx="2" />
    <text x="97.3076923076923" y="144" dominant-baseline="middle" class="value-label">1.15x (0.60ms)</text>
    <rect x="0" y="153" width="98.46153846153847" height="12" fill="#ef4444" rx="2" />
    <text x="103.46153846153847" y="160" dominant-baseline="middle" class="value-label">1.23x (0.64ms)</text>
    <rect x="0" y="169" width="123.07692307692308" height="12" fill="#8b5cf6" rx="2" />
    <text x="128.0769230769231" y="176" dominant-baseline="middle" class="value-label">1.54x (0.80ms)</text>
    <text x="-10" y="250" text-anchor="end" dominant-baseline="middle" class="op-label">Nested find all (include posts)</text>
    <rect x="0" y="210" width="80" height="12" fill="#3b82f6" rx="2" />
    <text x="85" y="217" dominant-baseline="middle" class="value-label">1.00x (2.16ms)</text>
    <rect x="0" y="226" width="113.70370370370368" height="12" fill="#22c55e" rx="2" />
    <text x="118.70370370370368" y="233" dominant-baseline="middle" class="value-label">1.42x (3.07ms)</text>
    <rect x="0" y="242" width="161.85185185185182" height="12" fill="#f59e0b" rx="2" />
    <text x="166.85185185185182" y="249" dominant-baseline="middle" class="value-label">2.02x (4.37ms)</text>
    <rect x="0" y="258" width="218.5185185185185" height="12" fill="#ef4444" rx="2" />
    <text x="223.5185185185185" y="265" dominant-baseline="middle" class="value-label">2.73x (5.90ms)</text>
    <rect x="0" y="274" width="272.96296296296293" height="12" fill="#8b5cf6" rx="2" />
    <text x="277.96296296296293" y="281" dominant-baseline="middle" class="value-label">3.41x (7.37ms)</text>
    <text x="-10" y="355" text-anchor="end" dominant-baseline="middle" class="op-label">Find first</text>
    <rect x="0" y="315" width="80" height="12" fill="#3b82f6" rx="2" />
    <text x="85" y="322" dominant-baseline="middle" class="value-label">1.00x (0.31ms)</text>
    <rect x="0" y="331" width="82.58064516129032" height="12" fill="#22c55e" rx="2" />
    <text x="87.58064516129032" y="338" dominant-baseline="middle" class="value-label">1.03x (0.32ms)</text>
    <rect x="0" y="347" width="74.83870967741935" height="12" fill="#f59e0b" rx="2" />
    <text x="79.83870967741935" y="354" dominant-baseline="middle" class="value-label">0.94x (0.29ms)</text>
    <rect x="0" y="363" width="85.16129032258067" height="12" fill="#ef4444" rx="2" />
    <text x="90.16129032258067" y="370" dominant-baseline="middle" class="value-label">1.06x (0.33ms)</text>
    <rect x="0" y="379" width="126.4516129032258" height="12" fill="#8b5cf6" rx="2" />
    <text x="131.4516129032258" y="386" dominant-baseline="middle" class="value-label">1.58x (0.49ms)</text>
    <text x="-10" y="460" text-anchor="end" dominant-baseline="middle" class="op-label">Nested find first (include posts)</text>
    <rect x="0" y="420" width="80" height="12" fill="#3b82f6" rx="2" />
    <text x="85" y="427" dominant-baseline="middle" class="value-label">1.00x (0.51ms)</text>
    <rect x="0" y="436" width="80" height="12" fill="#22c55e" rx="2" />
    <text x="85" y="443" dominant-baseline="middle" class="value-label">1.00x (0.51ms)</text>
    <rect x="0" y="452" width="87.84313725490198" height="12" fill="#f59e0b" rx="2" />
    <text x="92.84313725490198" y="459" dominant-baseline="middle" class="value-label">1.10x (0.56ms)</text>
    <rect x="0" y="468" width="73.72549019607843" height="12" fill="#ef4444" rx="2" />
    <text x="78.72549019607843" y="475" dominant-baseline="middle" class="value-label">0.92x (0.47ms)</text>
    <rect x="0" y="484" width="116.078431372549" height="12" fill="#8b5cf6" rx="2" />
    <text x="121.078431372549" y="491" dominant-baseline="middle" class="value-label">1.45x (0.74ms)</text>
    <text x="-10" y="565" text-anchor="end" dominant-baseline="middle" class="op-label">Find unique (by email)</text>
    <rect x="0" y="525" width="80" height="12" fill="#3b82f6" rx="2" />
    <text x="85" y="532" dominant-baseline="middle" class="value-label">1.00x (0.27ms)</text>
    <rect x="0" y="541" width="80" height="12" fill="#22c55e" rx="2" />
    <text x="85" y="548" dominant-baseline="middle" class="value-label">1.00x (0.27ms)</text>
    <rect x="0" y="557" width="85.92592592592592" height="12" fill="#f59e0b" rx="2" />
    <text x="90.92592592592592" y="564" dominant-baseline="middle" class="value-label">1.07x (0.29ms)</text>
    <rect x="0" y="573" width="94.81481481481481" height="12" fill="#ef4444" rx="2" />
    <text x="99.81481481481481" y="580" dominant-baseline="middle" class="value-label">1.19x (0.32ms)</text>
    <rect x="0" y="589" width="130.37037037037035" height="12" fill="#8b5cf6" rx="2" />
    <text x="135.37037037037035" y="596" dominant-baseline="middle" class="value-label">1.63x (0.44ms)</text>
    <text x="-10" y="670" text-anchor="end" dominant-baseline="middle" class="op-label">Nested find unique (include posts)</text>
    <rect x="0" y="630" width="80" height="12" fill="#3b82f6" rx="2" />
    <text x="85" y="637" dominant-baseline="middle" class="value-label">1.00x (0.54ms)</text>
    <rect x="0" y="646" width="72.59259259259258" height="12" fill="#22c55e" rx="2" />
    <text x="77.59259259259258" y="653" dominant-baseline="middle" class="value-label">0.91x (0.49ms)</text>
    <rect x="0" y="662" width="80" height="12" fill="#f59e0b" rx="2" />
    <text x="85" y="669" dominant-baseline="middle" class="value-label">1.00x (0.54ms)</text>
    <rect x="0" y="678" width="143.7037037037037" height="12" fill="#ef4444" rx="2" />
    <text x="148.7037037037037" y="685" dominant-baseline="middle" class="value-label">1.80x (0.97ms)</text>
    <rect x="0" y="694" width="106.66666666666667" height="12" fill="#8b5cf6" rx="2" />
    <text x="111.66666666666667" y="701" dominant-baseline="middle" class="value-label">1.33x (0.72ms)</text>
    <text x="-10" y="775" text-anchor="end" dominant-baseline="middle" class="op-label">Create</text>
    <rect x="0" y="735" width="80" height="12" fill="#3b82f6" rx="2" />
    <text x="85" y="742" dominant-baseline="middle" class="value-label">1.00x (0.70ms)</text>
    <rect x="0" y="751" width="77.71428571428572" height="12" fill="#22c55e" rx="2" />
    <text x="82.71428571428572" y="758" dominant-baseline="middle" class="value-label">0.97x (0.68ms)</text>
    <rect x="0" y="767" width="81.14285714285714" height="12" fill="#f59e0b" rx="2" />
    <text x="86.14285714285714" y="774" dominant-baseline="middle" class="value-label">1.01x (0.71ms)</text>
    <rect x="0" y="783" width="86.85714285714286" height="12" fill="#ef4444" rx="2" />
    <text x="91.85714285714286" y="790" dominant-baseline="middle" class="value-label">1.09x (0.76ms)</text>
    <rect x="0" y="799" width="106.28571428571429" height="12" fill="#8b5cf6" rx="2" />
    <text x="111.28571428571429" y="806" dominant-baseline="middle" class="value-label">1.33x (0.93ms)</text>
    <text x="-10" y="880" text-anchor="end" dominant-baseline="middle" class="op-label">Nested create (with post)</text>
    <rect x="0" y="840" width="80" height="12" fill="#3b82f6" rx="2" />
    <text x="85" y="847" dominant-baseline="middle" class="value-label">1.00x (0.82ms)</text>
    <rect x="0" y="856" width="86.82926829268294" height="12" fill="#22c55e" rx="2" />
    <text x="91.82926829268294" y="863" dominant-baseline="middle" class="value-label">1.09x (0.89ms)</text>
    <rect x="0" y="872" width="88.78048780487806" height="12" fill="#f59e0b" rx="2" />
    <text x="93.78048780487806" y="879" dominant-baseline="middle" class="value-label">1.11x (0.91ms)</text>
    <rect x="0" y="888" width="106.34146341463415" height="12" fill="#ef4444" rx="2" />
    <text x="111.34146341463415" y="895" dominant-baseline="middle" class="value-label">1.33x (1.09ms)</text>
    <rect x="0" y="904" width="139.5121951219512" height="12" fill="#8b5cf6" rx="2" />
    <text x="144.5121951219512" y="911" dominant-baseline="middle" class="value-label">1.74x (1.43ms)</text>
    <text x="-10" y="985" text-anchor="end" dominant-baseline="middle" class="op-label">Update</text>
    <rect x="0" y="945" width="80" height="12" fill="#3b82f6" rx="2" />
    <text x="85" y="952" dominant-baseline="middle" class="value-label">1.00x (0.61ms)</text>
    <rect x="0" y="961" width="85.24590163934427" height="12" fill="#22c55e" rx="2" />
    <text x="90.24590163934427" y="968" dominant-baseline="middle" class="value-label">1.07x (0.65ms)</text>
    <rect x="0" y="977" width="86.55737704918035" height="12" fill="#f59e0b" rx="2" />
    <text x="91.55737704918035" y="984" dominant-baseline="middle" class="value-label">1.08x (0.66ms)</text>
    <rect x="0" y="993" width="97.04918032786885" height="12" fill="#ef4444" rx="2" />
    <text x="102.04918032786885" y="1000" dominant-baseline="middle" class="value-label">1.21x (0.74ms)</text>
    <rect x="0" y="1009" width="136.39344262295083" height="12" fill="#8b5cf6" rx="2" />
    <text x="141.39344262295083" y="1016" dominant-baseline="middle" class="value-label">1.70x (1.04ms)</text>
    <text x="-10" y="1090" text-anchor="end" dominant-baseline="middle" class="op-label">Nested update (update user + post)</text>
    <rect x="0" y="1050" width="80" height="12" fill="#3b82f6" rx="2" />
    <text x="85" y="1057" dominant-baseline="middle" class="value-label">1.00x (0.89ms)</text>
    <rect x="0" y="1066" width="85.39325842696628" height="12" fill="#22c55e" rx="2" />
    <text x="90.39325842696628" y="1073" dominant-baseline="middle" class="value-label">1.07x (0.95ms)</text>
    <rect x="0" y="1082" width="83.59550561797754" height="12" fill="#f59e0b" rx="2" />
    <text x="88.59550561797754" y="1089" dominant-baseline="middle" class="value-label">1.04x (0.93ms)</text>
    <rect x="0" y="1098" width="90.78651685393257" height="12" fill="#ef4444" rx="2" />
    <text x="95.78651685393257" y="1105" dominant-baseline="middle" class="value-label">1.13x (1.01ms)</text>
    <rect x="0" y="1114" width="186.06741573033705" height="12" fill="#8b5cf6" rx="2" />
    <text x="191.06741573033705" y="1121" dominant-baseline="middle" class="value-label">2.33x (2.07ms)</text>
    <text x="-10" y="1195" text-anchor="end" dominant-baseline="middle" class="op-label">Upsert</text>
    <rect x="0" y="1155" width="80" height="12" fill="#3b82f6" rx="2" />
    <text x="85" y="1162" dominant-baseline="middle" class="value-label">1.00x (0.65ms)</text>
    <rect x="0" y="1171" width="78.76923076923077" height="12" fill="#22c55e" rx="2" />
    <text x="83.76923076923077" y="1178" dominant-baseline="middle" class="value-label">0.98x (0.64ms)</text>
    <rect x="0" y="1187" width="86.15384615384615" height="12" fill="#f59e0b" rx="2" />
    <text x="91.15384615384615" y="1194" dominant-baseline="middle" class="value-label">1.08x (0.70ms)</text>
    <rect x="0" y="1203" width="89.84615384615384" height="12" fill="#ef4444" rx="2" />
    <text x="94.84615384615384" y="1210" dominant-baseline="middle" class="value-label">1.12x (0.73ms)</text>
    <rect x="0" y="1219" width="188.30769230769232" height="12" fill="#8b5cf6" rx="2" />
    <text x="193.30769230769232" y="1226" dominant-baseline="middle" class="value-label">2.35x (1.53ms)</text>
    <text x="-10" y="1300" text-anchor="end" dominant-baseline="middle" class="op-label">Nested upsert (user + post)</text>
    <rect x="0" y="1260" width="80" height="12" fill="#3b82f6" rx="2" />
    <text x="85" y="1267" dominant-baseline="middle" class="value-label">1.00x (0.85ms)</text>
    <rect x="0" y="1276" width="102.58823529411765" height="12" fill="#22c55e" rx="2" />
    <text x="107.58823529411765" y="1283" dominant-baseline="middle" class="value-label">1.28x (1.09ms)</text>
    <rect x="0" y="1292" width="102.58823529411765" height="12" fill="#f59e0b" rx="2" />
    <text x="107.58823529411765" y="1299" dominant-baseline="middle" class="value-label">1.28x (1.09ms)</text>
    <rect x="0" y="1308" width="103.5294117647059" height="12" fill="#ef4444" rx="2" />
    <text x="108.5294117647059" y="1315" dominant-baseline="middle" class="value-label">1.29x (1.10ms)</text>
    <rect x="0" y="1324" width="177.88235294117646" height="12" fill="#8b5cf6" rx="2" />
    <text x="182.88235294117646" y="1331" dominant-baseline="middle" class="value-label">2.22x (1.89ms)</text>
    <text x="-10" y="1405" text-anchor="end" dominant-baseline="middle" class="op-label">Delete</text>
    <rect x="0" y="1365" width="80" height="12" fill="#3b82f6" rx="2" />
    <text x="85" y="1372" dominant-baseline="middle" class="value-label">1.00x (0.83ms)</text>
    <rect x="0" y="1381" width="91.56626506024097" height="12" fill="#22c55e" rx="2" />
    <text x="96.56626506024097" y="1388" dominant-baseline="middle" class="value-label">1.14x (0.95ms)</text>
    <rect x="0" y="1397" width="93.49397590361447" height="12" fill="#f59e0b" rx="2" />
    <text x="98.49397590361447" y="1404" dominant-baseline="middle" class="value-label">1.17x (0.97ms)</text>
    <rect x="0" y="1413" width="104.09638554216869" height="12" fill="#ef4444" rx="2" />
    <text x="109.09638554216869" y="1420" dominant-baseline="middle" class="value-label">1.30x (1.08ms)</text>
    <rect x="0" y="1429" width="115.66265060240963" height="12" fill="#8b5cf6" rx="2" />
    <text x="120.66265060240963" y="1436" dominant-baseline="middle" class="value-label">1.45x (1.20ms)</text>
    <text x="-10" y="1510" text-anchor="end" dominant-baseline="middle" class="op-label">Create Many (10 records)</text>
    <rect x="0" y="1470" width="80" height="12" fill="#3b82f6" rx="2" />
    <text x="85" y="1477" dominant-baseline="middle" class="value-label">1.00x (0.72ms)</text>
    <rect x="0" y="1486" width="83.33333333333334" height="12" fill="#22c55e" rx="2" />
    <text x="88.33333333333334" y="1493" dominant-baseline="middle" class="value-label">1.04x (0.75ms)</text>
    <rect x="0" y="1502" width="96.66666666666669" height="12" fill="#f59e0b" rx="2" />
    <text x="101.66666666666669" y="1509" dominant-baseline="middle" class="value-label">1.21x (0.87ms)</text>
    <rect x="0" y="1518" width="103.33333333333334" height="12" fill="#ef4444" rx="2" />
    <text x="108.33333333333334" y="1525" dominant-baseline="middle" class="value-label">1.29x (0.93ms)</text>
    <rect x="0" y="1534" width="116.66666666666667" height="12" fill="#8b5cf6" rx="2" />
    <text x="121.66666666666667" y="1541" dominant-baseline="middle" class="value-label">1.46x (1.05ms)</text>
    <text x="-10" y="1615" text-anchor="end" dominant-baseline="middle" class="op-label">Upsert Many (10 records)</text>
    <rect x="0" y="1575" width="80" height="12" fill="#3b82f6" rx="2" />
    <text x="85" y="1582" dominant-baseline="middle" class="value-label">1.00x (0.76ms)</text>
    <rect x="0" y="1591" width="90.52631578947367" height="12" fill="#22c55e" rx="2" />
    <text x="95.52631578947367" y="1598" dominant-baseline="middle" class="value-label">1.13x (0.86ms)</text>
    <rect x="0" y="1607" width="113.68421052631578" height="12" fill="#f59e0b" rx="2" />
    <text x="118.68421052631578" y="1614" dominant-baseline="middle" class="value-label">1.42x (1.08ms)</text>
    <rect x="0" y="1623" width="114.73684210526316" height="12" fill="#ef4444" rx="2" />
    <text x="119.73684210526316" y="1630" dominant-baseline="middle" class="value-label">1.43x (1.09ms)</text>
    <rect x="0" y="1639" width="400" height="12" fill="#8b5cf6" rx="2" />
    <line x1="397" y1="1639" x2="400" y2="1651" class="overflow-line" />
    <line x1="394" y1="1639" x2="397" y2="1651" class="overflow-line" />
    <text x="405" y="1646" dominant-baseline="middle" class="value-overflow">⚠️ 13.08x (9.94ms)</text>
    <text x="-10" y="1720" text-anchor="end" dominant-baseline="middle" class="op-label">Update Many (10 different values)</text>
    <rect x="0" y="1680" width="80" height="12" fill="#3b82f6" rx="2" />
    <text x="85" y="1687" dominant-baseline="middle" class="value-label">1.00x (0.67ms)</text>
    <rect x="0" y="1696" width="325.9701492537313" height="12" fill="#22c55e" rx="2" />
    <text x="330.9701492537313" y="1703" dominant-baseline="middle" class="value-label">4.07x (2.73ms)</text>
    <rect x="0" y="1712" width="308.0597014925373" height="12" fill="#f59e0b" rx="2" />
    <text x="313.0597014925373" y="1719" dominant-baseline="middle" class="value-label">3.85x (2.58ms)</text>
    <rect x="0" y="1728" width="331.9402985074626" height="12" fill="#ef4444" rx="2" />
    <text x="336.9402985074626" y="1735" dominant-baseline="middle" class="value-label">4.15x (2.78ms)</text>
    <rect x="0" y="1744" width="400" height="12" fill="#8b5cf6" rx="2" />
    <line x1="397" y1="1744" x2="400" y2="1756" class="overflow-line" />
    <line x1="394" y1="1744" x2="397" y2="1756" class="overflow-line" />
    <text x="405" y="1751" dominant-baseline="middle" class="value-overflow">⚠️ 6.55x (4.39ms)</text>
    <text x="-10" y="1825" text-anchor="end" dominant-baseline="middle" class="op-label">Nested relations (100→1000→10000)</text>
    <rect x="0" y="1785" width="80" height="12" fill="#3b82f6" rx="2" />
    <text x="85" y="1792" dominant-baseline="middle" class="value-label">1.00x (12.18ms)</text>
    <rect x="0" y="1801" width="106.5353037766831" height="12" fill="#22c55e" rx="2" />
    <text x="111.5353037766831" y="1808" dominant-baseline="middle" class="value-label">1.33x (16.22ms)</text>
    <rect x="0" y="1817" width="127.0279146141215" height="12" fill="#f59e0b" rx="2" />
    <text x="132.0279146141215" y="1824" dominant-baseline="middle" class="value-label">1.59x (19.34ms)</text>
    <rect x="0" y="1833" width="360.7881773399015" height="12" fill="#ef4444" rx="2" />
    <text x="365.7881773399015" y="1840" dominant-baseline="middle" class="value-label">4.51x (54.93ms)</text>
    <rect x="0" y="1849" width="394.54844006568146" height="12" fill="#8b5cf6" rx="2" />
    <text x="399.54844006568146" y="1856" dominant-baseline="middle" class="value-label">4.93x (60.07ms)</text>
    <text x="-10" y="1930" text-anchor="end" dominant-baseline="middle" class="op-label">Nested relations (composite key, 5 tenants)</text>
    <rect x="0" y="1890" width="80" height="12" fill="#3b82f6" rx="2" />
    <text x="85" y="1897" dominant-baseline="middle" class="value-label">1.00x (14.62ms)</text>
    <text x="5" y="1913" dominant-baseline="middle" class="na-text">N/A</text>
    <rect x="0" y="1922" width="77.92065663474693" height="12" fill="#f59e0b" rx="2" />
    <text x="82.92065663474693" y="1929" dominant-baseline="middle" class="value-label">0.97x (14.24ms)</text>
    <rect x="0" y="1938" width="159.8358413132695" height="12" fill="#ef4444" rx="2" />
    <text x="164.8358413132695" y="1945" dominant-baseline="middle" class="value-label">2.00x (29.21ms)</text>
    <rect x="0" y="1954" width="400" height="12" fill="#8b5cf6" rx="2" />
    <line x1="397" y1="1954" x2="400" y2="1966" class="overflow-line" />
    <line x1="394" y1="1954" x2="397" y2="1966" class="overflow-line" />
    <text x="405" y="1961" dominant-baseline="middle" class="value-overflow">⚠️ 13.39x (195.74ms)</text>
  </g>
  
  <!-- Legend -->
  <g transform="translate(640, 60)">
    <rect x="0" y="0" width="14" height="14" fill="#3b82f6" rx="2" />
    <text x="20" y="11" class="legend-text">litedbmodel</text>
    <rect x="0" y="20" width="14" height="14" fill="#22c55e" rx="2" />
    <text x="20" y="31" class="legend-text">Kysely</text>
    <rect x="0" y="40" width="14" height="14" fill="#f59e0b" rx="2" />
    <text x="20" y="51" class="legend-text">Drizzle</text>
    <rect x="0" y="60" width="14" height="14" fill="#ef4444" rx="2" />
    <text x="20" y="71" class="legend-text">TypeORM</text>
    <rect x="0" y="80" width="14" height="14" fill="#8b5cf6" rx="2" />
    <text x="20" y="91" class="legend-text">Prisma</text>
    <line x1="0" y1="110" x2="14" y2="110" class="overflow-line" />
    <text x="20" y="114" class="legend-text" fill="#dc2626">&gt;5x (truncated)</text>
  </g>
</svg>